<svg width="38" height="38" viewBox="0 0 38 38" fill="none" xmlns="http://www.w3.org/2000/svg">
<rect width="38" height="38" rx="5" fill="white"/>
<path d="M20.9884 15.2543C21.368 14.8369 21.6792 14.4161 22.0691 14.0588C23.266 12.9568 24.6819 12.4024 26.3371 12.4158C27.2468 12.4224 28.1428 12.4859 29.0183 12.733C31.0223 13.2974 32.1851 14.6465 32.7425 16.5567C33.1597 17.9894 33.235 19.4621 33.2384 20.9381C33.2452 24.0505 33.2281 27.1663 33.2384 30.2787C33.2384 30.5692 33.1563 30.646 32.8622 30.646C31.2207 30.6326 29.5757 30.6326 27.9342 30.646C27.6435 30.646 27.5819 30.5625 27.5819 30.2954C27.5922 27.3332 27.5922 24.3711 27.5819 21.4057C27.5819 20.6643 27.5306 19.9196 27.3186 19.1983C26.9253 17.8691 25.9506 17.1912 24.5245 17.2647C22.5752 17.3649 21.5629 18.3066 21.3167 20.2402C21.2586 20.701 21.2278 21.1652 21.2312 21.6294C21.2312 24.5114 21.2312 27.3933 21.238 30.2753C21.238 30.5625 21.1662 30.646 20.8653 30.646C19.21 30.6326 17.5548 30.6326 15.8996 30.646C15.6329 30.646 15.5576 30.5792 15.5576 30.3154C15.5645 24.6116 15.5645 18.9044 15.5576 13.2005C15.5576 12.9167 15.6534 12.8532 15.927 12.8532C17.4967 12.8633 19.0698 12.8666 20.6396 12.8532C20.9302 12.8532 21.0021 12.9434 20.9986 13.2106C20.9815 13.8918 20.9918 14.5731 20.9918 15.2577L20.9884 15.2543Z" fill="#1CA893"/>
<path d="M11.988 21.7725C11.988 24.5943 11.9846 27.4162 11.9949 30.2381C11.9949 30.552 11.9162 30.6455 11.5845 30.6421C9.94295 30.6254 8.3014 30.6288 6.65644 30.6421C6.39311 30.6421 6.31445 30.5787 6.31445 30.3149C6.32129 24.601 6.32129 18.8872 6.31445 13.17C6.31445 12.9329 6.37259 12.8494 6.62908 12.8494C8.29456 12.8594 9.96004 12.8627 11.6255 12.8494C11.947 12.8494 11.988 12.9662 11.988 13.2367C11.9812 16.082 11.9846 18.9272 11.9846 21.7725H11.988Z" fill="#1CA893"/>
<path d="M12.4432 7.18972C12.4432 8.96313 10.9725 10.4059 9.15985 10.4059C7.3711 10.4059 5.88675 8.96313 5.87991 7.21644C5.87307 5.45304 7.35742 4.00024 9.16669 4.00024C10.9623 4.00024 12.4398 5.43968 12.4432 7.18638V7.18972Z" fill="#1CA893"/>
</svg>
