<svg width="20" height="21" viewBox="0 0 20 21" fill="none" xmlns="http://www.w3.org/2000/svg">
<path d="M18.125 10.0771C18.125 14.6001 14.4883 18.2648 10 18.2648C5.51172 18.2648 1.875 14.6001 1.875 10.0771C1.875 5.55424 5.51172 1.88946 10 1.88946C14.4883 1.88946 18.125 5.55424 18.125 10.0771ZM0 10.0771C0 15.6432 4.47656 20.1543 10 20.1543C15.5234 20.1543 20 15.6432 20 10.0771C20 4.5111 15.5234 0 10 0C4.47656 0 0 4.5111 0 10.0771ZM9.41406 14.8402L13.4766 10.7463C13.8438 10.3763 13.8438 9.77798 13.4766 9.4119L9.41406 5.31412C9.04688 4.9441 8.45312 4.9441 8.08984 5.31412C7.72656 5.68414 7.72266 6.28247 8.08984 6.64855L11.4883 10.0732L8.08984 13.4979C7.72266 13.8679 7.72266 14.4662 8.08984 14.8323C8.45703 15.1984 9.05078 15.2023 9.41406 14.8323V14.8402Z" fill="white"/>
</svg>
